<?xml version="1.0" encoding="UTF-8"?>
<svg width="40px" height="40px" viewBox="0 0 40 40" version="1.1" xmlns="http://www.w3.org/2000/svg">
    <g stroke="none" stroke-width="1" fill="none" fill-rule="evenodd">
        <path d="M20,0 C31.0457,0 40,8.9543 40,20 C40,31.0457 31.0457,40 20,40 C8.9543,40 0,31.0457 0,20 C0,8.9543 8.9543,0 20,0 Z" fill="#805AD5" opacity="0.2"></path>
        <path d="M25.5,13.5 C26.3284,13.5 27,12.8284 27,12 C27,11.1716 26.3284,10.5 25.5,10.5 C24.6716,10.5 24,11.1716 24,12 C24,12.8284 24.6716,13.5 25.5,13.5 Z" fill="#805AD5"></path>
        <path d="M20,32 C15.5817,32 12,28.4183 12,24 C12,19.5817 15.5817,16 20,16 C24.4183,16 28,19.5817 28,24 C28,28.4183 24.4183,32 20,32 Z M20,28 C22.2091,28 24,26.2091 24,24 C24,21.7909 22.2091,20 20,20 C17.7909,20 16,21.7909 16,24 C16,26.2091 17.7909,28 20,28 Z" fill="#805AD5"></path>
        <path d="M12,18 C12,15.7909 13.7909,14 16,14 C18.2091,14 20,15.7909 20,18" stroke="#805AD5" stroke-width="2" stroke-linecap="round"></path>
        <path d="M28,18 C28,15.7909 26.2091,14 24,14 C21.7909,14 20,15.7909 20,18" stroke="#805AD5" stroke-width="2" stroke-linecap="round" transform="translate(24.000000, 16.000000) scale(-1, 1) translate(-24.000000, -16.000000) "></path>
        <path d="M16.5,9.5 C17.3284,9.5 18,8.82843 18,8 C18,7.17157 17.3284,6.5 16.5,6.5 C15.6716,6.5 15,7.17157 15,8 C15,8.82843 15.6716,9.5 16.5,9.5 Z" fill="#805AD5"></path>
    </g>
</svg>
