<?xml version="1.0" encoding="UTF-8"?>
<svg width="40px" height="40px" viewBox="0 0 40 40" version="1.1" xmlns="http://www.w3.org/2000/svg">
    <g stroke="none" stroke-width="1" fill="none" fill-rule="evenodd">
        <path d="M20,0 C31.0457,0 40,8.9543 40,20 C40,31.0457 31.0457,40 20,40 C8.9543,40 0,31.0457 0,20 C0,8.9543 8.9543,0 20,0 Z" fill="#805AD5" opacity="0.2"></path>
        <path d="M20,32 C15.5817,32 12,28.4183 12,24 C12,19.5817 15.5817,16 20,16 C24.4183,16 28,19.5817 28,24 C28,28.4183 24.4183,32 20,32 Z M20,28 C22.2091,28 24,26.2091 24,24 C24,21.7909 22.2091,20 20,20 C17.7909,20 16,21.7909 16,24 C16,26.2091 17.7909,28 20,28 Z" fill="#805AD5"></path>
        <circle cx="20" cy="12" r="3" fill="#805AD5"></circle>
        <circle cx="20" cy="24" r="2" fill="#805AD5"></circle>
        <path d="M20,8 L20,16" stroke="#805AD5" stroke-width="1.5" stroke-linecap="round"></path>
        <path d="M16,12 L24,12" stroke="#805AD5" stroke-width="1.5" stroke-linecap="round"></path>
        <path d="M14,24 C14,16 26,16 26,24" stroke="#805AD5" stroke-width="1.5" stroke-linecap="round"></path>
    </g>
</svg>
